<svg display="none"
    xmlns="http://www.w3.org/2000/svg">
    <symbol width="27" height="28" viewBox="0 0 27 28" id="globe-icon">
        <path d="M19.6743 6.55704L19.7004 6.76178L19.4 6.82529L19.36 7.26141H19.7198L20.1984 7.21434L20.4455 6.91433L20.1829 6.80998L20.0391 6.64098L19.8231 6.28369L19.7198 5.77838L19.3139 5.86288L19.2001 6.04096V6.24172L19.3955 6.3784L19.6743 6.55704Z"/>
        <path d="M19.3284 6.72489L19.35 6.45154L19.1118 6.34662L18.7787 6.42545L18.5316 6.83038V7.09295H18.8197L19.3284 6.72489Z"/>
        <path d="M12.4708 7.88583L12.3975 8.07865H12.0427V8.26581H12.1271C12.1271 8.26581 12.1321 8.3055 12.1393 8.35768L12.357 8.33896L12.493 8.25276L12.5286 8.07865L12.7046 8.06334L12.774 7.91702L12.6124 7.883L12.4708 7.88583Z"/>
        <path d="M11.5563 8.2255L11.5424 8.40868L11.7995 8.38656L11.8262 8.20281L11.6718 8.07861L11.5563 8.2255Z"/>
        <path d="M26.9967 14.0692C26.9928 13.6659 26.9728 13.2656 26.9356 12.8714C26.8107 11.5574 26.503 10.2978 26.0422 9.11704C26.0077 9.02913 25.9761 8.9401 25.9394 8.85333C25.3253 7.37143 24.463 6.02224 23.4074 4.85793C23.338 4.78194 23.2675 4.70708 23.197 4.63335C22.9976 4.42181 22.7927 4.21538 22.5806 4.01745C20.1807 1.78582 16.9935 0.423584 13.4997 0.423584C9.97654 0.423584 6.76652 1.8102 4.35998 4.07587C3.79916 4.60386 3.28387 5.18006 2.81633 5.79709C1.05279 8.12684 0 11.0453 0 14.2115C0 21.815 6.05633 28 13.5003 28C18.7365 28 23.2825 24.9375 25.5202 20.4754C25.9988 19.5215 26.3714 18.5047 26.6224 17.439C26.6863 17.1685 26.7412 16.8969 26.789 16.6218C26.925 15.8386 26.9994 15.0333 26.9994 14.2115C27 14.1639 26.9972 14.1168 26.9967 14.0692ZM24.4558 8.55842L24.534 8.46881C24.6368 8.67241 24.7328 8.87941 24.8245 9.08925L24.6967 9.08415L24.4558 9.11817V8.55842ZM22.5051 6.15268L22.5073 5.53678C22.7194 5.76647 22.9238 6.00296 23.1192 6.24796L22.876 6.61772L22.0259 6.60978L21.9726 6.42887L22.5051 6.15268ZM6.22013 4.62201V4.59876H6.49055L6.51387 4.50405H6.95642V4.70141L6.82927 4.87495H6.21958L6.22013 4.62201ZM6.65213 5.23734C6.65213 5.23734 6.92255 5.19027 6.94587 5.19027C6.96919 5.19027 6.94587 5.46589 6.94587 5.46589L6.33619 5.50502L6.22013 5.36324L6.65213 5.23734ZM25.3159 10.7107H24.328L23.7261 10.253L23.0926 10.3159V10.7107H22.8921L22.6756 10.553L21.5783 10.2689V9.54295L20.1879 9.65354L19.7571 9.89003H19.2051L18.9347 9.86224L18.2645 10.2422V10.9574L16.8946 11.9668L17.0085 12.3979H17.2861L17.2134 12.8085L17.0179 12.8816L17.0074 13.9546L18.1912 15.3316H18.7065L18.7376 15.2477H19.6638L19.9309 14.9953H20.4561L20.7443 15.2902L21.5273 15.373L21.4234 16.4364L22.2924 18.0033L21.8349 18.8965L21.866 19.3173L22.2263 19.6843V20.696L22.6994 21.3459V22.1864H23.1081C20.8337 25.0385 17.3722 26.8652 13.4992 26.8652C6.66824 26.8658 1.11054 21.1889 1.11054 14.2115C1.11054 12.4551 1.46369 10.781 2.09948 9.25939V8.86467L2.54258 8.31512C2.69639 8.01852 2.86131 7.72928 3.03733 7.44742L3.05732 7.67711L2.54314 8.31512C2.38377 8.62251 2.23496 8.93669 2.10003 9.25939V9.97964L2.61477 10.2326V11.2335L3.1084 12.0939L3.50986 12.1568L3.5615 11.8619L3.08786 11.1156L2.99513 10.3902H3.27276L3.38992 11.1366L4.07457 12.1568L3.89799 12.4863L4.33333 13.1663L5.41444 13.4397V13.261L5.84699 13.324L5.8059 13.6393L6.14573 13.7028L6.67046 13.8491L7.41174 14.7117L8.35848 14.7849L8.45121 15.5738L7.80321 16.0365L7.77267 16.7409L7.67994 17.1719L8.61723 18.3702L8.68886 18.7808C8.68886 18.7808 9.02869 18.875 9.07033 18.875C9.11142 18.875 9.83217 19.4325 9.83217 19.4325V21.5983L10.0893 21.672L9.91434 22.6713L10.3469 23.2606L10.2669 24.2508L10.8383 25.2767L11.5718 25.9312L12.3092 25.9448L12.3814 25.7026L11.8395 25.2364L11.8706 25.005L11.9677 24.7215L11.9883 24.4322L11.6218 24.4209L11.4369 24.1838L11.7412 23.885L11.7823 23.6593L11.4424 23.56L11.4624 23.3502L11.9466 23.2753L12.6829 22.914L12.93 22.4513L13.7024 21.4418L13.5269 20.6524L13.764 20.2321L14.4742 20.2542L14.9523 19.8675L15.1067 18.3442L15.637 17.6562L15.7297 17.2144L15.246 17.0562L14.9268 16.5214L13.8357 16.5101L12.9706 16.1732L12.9295 15.5431L12.6407 15.0276L11.8583 15.0157L11.4064 14.2909L11.0049 14.0907L10.9844 14.3119L10.2536 14.3561L9.98597 13.9756L9.22359 13.8174L8.59558 14.5586L7.6072 14.3873L7.53557 13.2497L6.81427 13.1238L7.10357 12.5657L7.02083 12.2453L6.07299 12.8924L5.47663 12.8181L5.26396 12.3423L5.39389 11.8517L5.72261 11.233L6.47944 10.8417L7.94092 10.8411L7.93703 11.2965L8.46231 11.546L8.42067 10.7679L8.79936 10.3789L9.56341 9.86621L9.61561 9.50552L10.3774 8.69567L11.1876 8.23743L11.1159 8.17731L11.6646 7.64989L11.8656 7.70433L11.9577 7.82229L12.166 7.58637L12.217 7.56312L11.9888 7.53022L11.7573 7.45139V7.22454L11.88 7.12189H12.1504L12.2742 7.17747L12.3814 7.39865L12.5125 7.37823V7.35895L12.5502 7.372L12.93 7.31245L12.9839 7.12303L13.2004 7.17861V7.38391L12.9994 7.52512H13L13.0294 7.75027L13.7174 7.96691C13.7174 7.96691 13.7179 7.96975 13.7191 7.97542L13.8773 7.96181L13.8879 7.65726L13.3426 7.40375L13.3115 7.25744L13.764 7.09978L13.784 6.65742L13.3109 6.36308L13.2798 5.61731L12.6313 5.94284H12.3947L12.4569 5.37515L11.574 5.16248L11.2087 5.44434V6.3041L10.5518 6.51677L10.2886 7.07709L10.0032 7.12416V6.40732L9.38573 6.31998L9.077 6.11468L8.95262 5.65021L10.057 4.99007L10.5973 4.8222L10.6517 5.1931L10.9527 5.17722L10.976 4.99064L11.2909 4.9447L11.2964 4.87948L11.1609 4.8222L11.1298 4.62484L11.5169 4.59138L11.7506 4.34298L11.7634 4.32484L11.7662 4.32597L11.8372 4.25111L12.6507 4.14619L13.0105 4.45811L12.0671 4.97136L13.2676 5.26059L13.4231 4.85056H13.9478L14.1333 4.49327L13.7624 4.39856V3.94656L12.5991 3.42027L11.7962 3.51498L11.3431 3.75714L11.3741 4.34582L10.9005 4.27209L10.8278 3.94656L11.2814 3.52576L10.458 3.48379L10.2214 3.55695L10.1187 3.84051L10.4274 3.89382L10.3658 4.20914L9.84105 4.2409L9.75887 4.45074L8.99759 4.47229C8.99759 4.47229 8.97649 4.03106 8.94595 4.03106C8.91541 4.03106 9.54287 4.02029 9.54287 4.02029L9.99652 3.56772L9.74887 3.44125L9.4196 3.76792L8.87321 3.73616L8.54394 3.27339H7.84374L7.11301 3.83087H7.78266L7.84374 4.03106L7.66994 4.1961L8.41123 4.21708L8.5245 4.49044L7.68993 4.45868L7.6494 4.24827L7.12467 4.13258L6.84648 3.97492L6.2218 3.98002C8.26686 2.45843 10.7817 1.55783 13.4997 1.55783C16.6326 1.55783 19.495 2.7539 21.6789 4.71899L21.5317 4.9878L20.9603 5.21636L20.7193 5.48347L20.7749 5.79482L21.0697 5.83679L21.2474 6.29049L21.756 6.08122L21.8399 6.68804H21.6866L21.2691 6.62509L20.806 6.70449L20.3579 7.35101L19.7171 7.45366L19.6243 8.01398L19.8948 8.0792L19.8165 8.43932L19.1801 8.30889L18.5965 8.43932L18.4727 8.77109L18.5738 9.46752L18.9164 9.63142L19.4911 9.62802L19.8792 9.59229L19.9975 9.27697L20.6038 8.47222L21.0031 8.55558L21.3962 8.19263L21.4695 8.47619L22.4368 9.14256L22.3185 9.30476L21.8826 9.28094L22.0503 9.52367L22.3185 9.58378L22.6328 9.44994L22.6261 9.06316L22.7655 8.9917L22.6533 8.87034L22.0081 8.50284L21.8382 8.01455H22.3746L22.5462 8.18809L23.0082 8.59472L23.0276 9.08641L23.5062 9.60703L23.6845 8.89359L24.016 8.70871L24.0782 9.29228L24.4019 9.65524L25.0477 9.6439C25.1726 9.97226 25.2848 10.3063 25.3831 10.6471L25.3159 10.7107ZM7.36343 6.68804L7.68771 6.53038L7.9809 6.60184L7.87984 7.00393L7.56333 7.10658L7.36343 6.68804ZM9.08422 7.63457V7.89489H8.34349L8.06585 7.81605L8.13526 7.63457L8.49119 7.48429H8.9776V7.63457H9.08422ZM9.42515 7.99753V8.24991L9.23969 8.37184L9.0087 8.41551C9.0087 8.41551 9.0087 8.03723 9.0087 7.99753H9.42515ZM9.21637 7.89489V7.59488L9.47124 7.83193L9.21637 7.89489ZM9.33242 8.50171V8.74727L9.15529 8.92875H8.76161L8.82324 8.65313L9.00926 8.63668L9.04757 8.54197L9.33242 8.50171ZM8.35182 7.99753H8.76105L8.23632 8.74671L8.01976 8.62818L8.06641 8.31286L8.35182 7.99753ZM10.0276 8.41551V8.6605H9.63393L9.52621 8.50171V8.27372H9.55731L10.0276 8.41551ZM9.66392 8.07863L9.77608 7.9584L9.96543 8.07863L9.81384 8.20624L9.66392 8.07863ZM25.5169 11.3492L25.5557 11.3027C25.5718 11.3742 25.5891 11.4457 25.6046 11.5182L25.5169 11.3492Z"/>
        <path d="M2.09998 8.86467V9.25939C2.23491 8.93726 2.38372 8.62307 2.54308 8.31512L2.09998 8.86467Z"/>
    </symbol>
</svg>